<?xml version="1.0" encoding="UTF-8" standalone="no"?>
<!DOCTYPE svg PUBLIC "-//W3C//DTD SVG 1.1//EN"
 "http://www.w3.org/Graphics/SVG/1.1/DTD/svg11.dtd">
<!-- Generated by graphviz version 2.44.0 ()
 -->
<!-- Title: CART Pages: 1 -->
<svg width="602pt" height="616pt"
 viewBox="0.00 0.00 601.92 615.77" xmlns="http://www.w3.org/2000/svg" xmlns:xlink="http://www.w3.org/1999/xlink">
<g id="graph0" class="graph" transform="scale(1 1) rotate(0) translate(4 611.77)">
<title>CART</title>
<polygon fill="white" stroke="transparent" points="-4,4 -4,-611.77 597.92,-611.77 597.92,4 -4,4"/>
<!-- 1 -->
<g id="node1" class="node">
<title>1</title>
<path fill="transparent" stroke="black" d="M374.46,-607.77C374.46,-607.77 218.46,-607.77 218.46,-607.77 212.46,-607.77 206.46,-601.77 206.46,-595.77 206.46,-595.77 206.46,-566.77 206.46,-566.77 206.46,-560.77 212.46,-554.77 218.46,-554.77 218.46,-554.77 374.46,-554.77 374.46,-554.77 380.46,-554.77 386.46,-560.77 386.46,-566.77 386.46,-566.77 386.46,-595.77 386.46,-595.77 386.46,-601.77 380.46,-607.77 374.46,-607.77"/>
<text text-anchor="start" x="238.46" y="-592.57" font-family="Helvetica,sans-Serif" font-size="14.00">petal_length ≤ 2.45</text>
<text text-anchor="start" x="264.96" y="-577.57" font-family="Helvetica,sans-Serif" font-size="14.00">size = 150</text>
<text text-anchor="start" x="214.46" y="-562.57" font-family="Helvetica,sans-Serif" font-size="14.00">impurity reduction = 0.3333</text>
</g>
<!-- 2 -->
<g id="node2" class="node">
<title>2</title>
<ellipse fill="transparent" stroke="black" cx="197.46" cy="-481.29" rx="90.52" ry="37.45"/>
<text text-anchor="start" x="162.46" y="-492.59" font-family="Helvetica,sans-Serif" font-size="14.00">species = 0</text>
<text text-anchor="start" x="169.96" y="-477.59" font-family="Helvetica,sans-Serif" font-size="14.00">size = 50</text>
<text text-anchor="start" x="141.46" y="-462.59" font-family="Helvetica,sans-Serif" font-size="14.00">deviance = 3.8466</text>
</g>
<!-- 1&#45;&gt;2 -->
<g id="edge1" class="edge">
<title>1&#45;&gt;2</title>
<path fill="none" stroke="black" d="M270.45,-554.52C260.86,-545.03 249.74,-534.03 239.12,-523.52"/>
<polygon fill="black" stroke="black" points="241.43,-520.88 231.86,-516.34 236.51,-525.86 241.43,-520.88"/>
<text text-anchor="middle" x="231.99" y="-537.64" font-family="Helvetica,sans-Serif" font-size="14.00">True</text>
</g>
<!-- 3 -->
<g id="node3" class="node">
<title>3</title>
<path fill="transparent" stroke="black" d="M474.46,-507.79C474.46,-507.79 318.46,-507.79 318.46,-507.79 312.46,-507.79 306.46,-501.79 306.46,-495.79 306.46,-495.79 306.46,-466.79 306.46,-466.79 306.46,-460.79 312.46,-454.79 318.46,-454.79 318.46,-454.79 474.46,-454.79 474.46,-454.79 480.46,-454.79 486.46,-460.79 486.46,-466.79 486.46,-466.79 486.46,-495.79 486.46,-495.79 486.46,-501.79 480.46,-507.79 474.46,-507.79"/>
<text text-anchor="start" x="340.96" y="-492.59" font-family="Helvetica,sans-Serif" font-size="14.00">petal_width ≤ 1.75</text>
<text text-anchor="start" x="364.96" y="-477.59" font-family="Helvetica,sans-Serif" font-size="14.00">size = 100</text>
<text text-anchor="start" x="314.46" y="-462.59" font-family="Helvetica,sans-Serif" font-size="14.00">impurity reduction = 0.3897</text>
</g>
<!-- 1&#45;&gt;3 -->
<g id="edge2" class="edge">
<title>1&#45;&gt;3</title>
<path fill="none" stroke="black" d="M322.73,-554.52C335.02,-542.49 349.8,-528.01 362.88,-515.19"/>
<polygon fill="black" stroke="black" points="365.67,-517.36 370.36,-507.86 360.77,-512.36 365.67,-517.36"/>
<text text-anchor="middle" x="370.11" y="-529.16" font-family="Helvetica,sans-Serif" font-size="14.00">False</text>
</g>
<!-- 6 -->
<g id="node4" class="node">
<title>6</title>
<path fill="transparent" stroke="black" d="M373.46,-396.84C373.46,-396.84 217.46,-396.84 217.46,-396.84 211.46,-396.84 205.46,-390.84 205.46,-384.84 205.46,-384.84 205.46,-355.84 205.46,-355.84 205.46,-349.84 211.46,-343.84 217.46,-343.84 217.46,-343.84 373.46,-343.84 373.46,-343.84 379.46,-343.84 385.46,-349.84 385.46,-355.84 385.46,-355.84 385.46,-384.84 385.46,-384.84 385.46,-390.84 379.46,-396.84 373.46,-396.84"/>
<text text-anchor="start" x="239.46" y="-381.64" font-family="Helvetica,sans-Serif" font-size="14.00">sepal_length ≤ 7.1</text>
<text text-anchor="start" x="267.96" y="-366.64" font-family="Helvetica,sans-Serif" font-size="14.00">size = 54</text>
<text text-anchor="start" x="213.46" y="-351.64" font-family="Helvetica,sans-Serif" font-size="14.00">impurity reduction = 0.0311</text>
</g>
<!-- 3&#45;&gt;6 -->
<g id="edge3" class="edge">
<title>3&#45;&gt;6</title>
<path fill="none" stroke="black" d="M372.78,-454.75C358.95,-439.83 341.34,-420.83 326.42,-404.74"/>
<polygon fill="black" stroke="black" points="328.71,-402.05 319.34,-397.1 323.57,-406.81 328.71,-402.05"/>
</g>
<!-- 7 -->
<g id="node5" class="node">
<title>7</title>
<ellipse fill="transparent" stroke="black" cx="498.46" cy="-370.34" rx="95.42" ry="37.45"/>
<text text-anchor="start" x="463.46" y="-381.64" font-family="Helvetica,sans-Serif" font-size="14.00">species = 2</text>
<text text-anchor="start" x="470.96" y="-366.64" font-family="Helvetica,sans-Serif" font-size="14.00">size = 46</text>
<text text-anchor="start" x="438.96" y="-351.64" font-family="Helvetica,sans-Serif" font-size="14.00">deviance = 12.0834</text>
</g>
<!-- 3&#45;&gt;7 -->
<g id="edge4" class="edge">
<title>3&#45;&gt;7</title>
<path fill="none" stroke="black" d="M420.37,-454.75C431.9,-442.43 446.03,-427.34 459.08,-413.4"/>
<polygon fill="black" stroke="black" points="461.92,-415.49 466.2,-405.8 456.81,-410.7 461.92,-415.49"/>
</g>
<!-- 12 -->
<g id="node6" class="node">
<title>12</title>
<path fill="transparent" stroke="black" d="M274.46,-285.88C274.46,-285.88 118.46,-285.88 118.46,-285.88 112.46,-285.88 106.46,-279.88 106.46,-273.88 106.46,-273.88 106.46,-244.88 106.46,-244.88 106.46,-238.88 112.46,-232.88 118.46,-232.88 118.46,-232.88 274.46,-232.88 274.46,-232.88 280.46,-232.88 286.46,-238.88 286.46,-244.88 286.46,-244.88 286.46,-273.88 286.46,-273.88 286.46,-279.88 280.46,-285.88 274.46,-285.88"/>
<text text-anchor="start" x="140.96" y="-270.68" font-family="Helvetica,sans-Serif" font-size="14.00">petal_width ≤ 1.65</text>
<text text-anchor="start" x="168.96" y="-255.68" font-family="Helvetica,sans-Serif" font-size="14.00">size = 53</text>
<text text-anchor="start" x="114.46" y="-240.68" font-family="Helvetica,sans-Serif" font-size="14.00">impurity reduction = 0.0141</text>
</g>
<!-- 6&#45;&gt;12 -->
<g id="edge5" class="edge">
<title>6&#45;&gt;12</title>
<path fill="none" stroke="black" d="M272.25,-343.79C258.69,-328.87 241.43,-309.88 226.81,-293.78"/>
<polygon fill="black" stroke="black" points="229.18,-291.19 219.87,-286.15 224,-295.9 229.18,-291.19"/>
</g>
<!-- 13 -->
<g id="node7" class="node">
<title>13</title>
<ellipse fill="transparent" stroke="black" cx="395.46" cy="-259.38" rx="90.52" ry="37.45"/>
<text text-anchor="start" x="360.46" y="-270.68" font-family="Helvetica,sans-Serif" font-size="14.00">species = 2</text>
<text text-anchor="start" x="371.46" y="-255.68" font-family="Helvetica,sans-Serif" font-size="14.00">size = 1</text>
<text text-anchor="start" x="339.46" y="-240.68" font-family="Helvetica,sans-Serif" font-size="14.00">deviance = 1.3863</text>
</g>
<!-- 6&#45;&gt;13 -->
<g id="edge6" class="edge">
<title>6&#45;&gt;13</title>
<path fill="none" stroke="black" d="M318.9,-343.79C330.21,-331.48 344.05,-316.39 356.85,-302.45"/>
<polygon fill="black" stroke="black" points="359.65,-304.58 363.83,-294.84 354.49,-299.84 359.65,-304.58"/>
</g>
<!-- 24 -->
<g id="node8" class="node">
<title>24</title>
<ellipse fill="transparent" stroke="black" cx="95.46" cy="-148.43" rx="95.42" ry="37.45"/>
<text text-anchor="start" x="60.46" y="-159.73" font-family="Helvetica,sans-Serif" font-size="14.00">species = 1</text>
<text text-anchor="start" x="67.96" y="-144.73" font-family="Helvetica,sans-Serif" font-size="14.00">size = 51</text>
<text text-anchor="start" x="35.96" y="-129.73" font-family="Helvetica,sans-Serif" font-size="14.00">deviance = 24.9439</text>
</g>
<!-- 12&#45;&gt;24 -->
<g id="edge7" class="edge">
<title>12&#45;&gt;24</title>
<path fill="none" stroke="black" d="M172.78,-232.84C161.37,-220.53 147.38,-205.44 134.45,-191.49"/>
<polygon fill="black" stroke="black" points="136.77,-188.84 127.4,-183.89 131.64,-193.6 136.77,-188.84"/>
</g>
<!-- 25 -->
<g id="node9" class="node">
<title>25</title>
<path fill="transparent" stroke="black" d="M376.46,-174.93C376.46,-174.93 220.46,-174.93 220.46,-174.93 214.46,-174.93 208.46,-168.93 208.46,-162.93 208.46,-162.93 208.46,-133.93 208.46,-133.93 208.46,-127.93 214.46,-121.93 220.46,-121.93 220.46,-121.93 376.46,-121.93 376.46,-121.93 382.46,-121.93 388.46,-127.93 388.46,-133.93 388.46,-133.93 388.46,-162.93 388.46,-162.93 388.46,-168.93 382.46,-174.93 376.46,-174.93"/>
<text text-anchor="start" x="241.46" y="-159.73" font-family="Helvetica,sans-Serif" font-size="14.00">sepal_width ≤ 2.75</text>
<text text-anchor="start" x="274.46" y="-144.73" font-family="Helvetica,sans-Serif" font-size="14.00">size = 2</text>
<text text-anchor="start" x="216.46" y="-129.73" font-family="Helvetica,sans-Serif" font-size="14.00">impurity reduction = 0.5000</text>
</g>
<!-- 12&#45;&gt;25 -->
<g id="edge8" class="edge">
<title>12&#45;&gt;25</title>
<path fill="none" stroke="black" d="M220.37,-232.84C234.34,-217.92 252.12,-198.92 267.19,-182.83"/>
<polygon fill="black" stroke="black" points="270.06,-184.88 274.34,-175.19 264.95,-180.1 270.06,-184.88"/>
</g>
<!-- 50 -->
<g id="node10" class="node">
<title>50</title>
<ellipse fill="transparent" stroke="black" cx="198.46" cy="-37.48" rx="90.52" ry="37.45"/>
<text text-anchor="start" x="163.46" y="-48.78" font-family="Helvetica,sans-Serif" font-size="14.00">species = 2</text>
<text text-anchor="start" x="174.46" y="-33.78" font-family="Helvetica,sans-Serif" font-size="14.00">size = 1</text>
<text text-anchor="start" x="142.46" y="-18.78" font-family="Helvetica,sans-Serif" font-size="14.00">deviance = 1.3863</text>
</g>
<!-- 25&#45;&gt;50 -->
<g id="edge9" class="edge">
<title>25&#45;&gt;50</title>
<path fill="none" stroke="black" d="M275.01,-121.89C263.71,-109.57 249.86,-94.48 237.07,-80.54"/>
<polygon fill="black" stroke="black" points="239.43,-77.94 230.09,-72.94 234.27,-82.67 239.43,-77.94"/>
</g>
<!-- 51 -->
<g id="node11" class="node">
<title>51</title>
<ellipse fill="transparent" stroke="black" cx="397.46" cy="-37.48" rx="90.52" ry="37.45"/>
<text text-anchor="start" x="362.46" y="-48.78" font-family="Helvetica,sans-Serif" font-size="14.00">species = 1</text>
<text text-anchor="start" x="373.46" y="-33.78" font-family="Helvetica,sans-Serif" font-size="14.00">size = 1</text>
<text text-anchor="start" x="341.46" y="-18.78" font-family="Helvetica,sans-Serif" font-size="14.00">deviance = 1.3863</text>
</g>
<!-- 25&#45;&gt;51 -->
<g id="edge10" class="edge">
<title>25&#45;&gt;51</title>
<path fill="none" stroke="black" d="M321.67,-121.89C332.86,-109.57 346.57,-94.48 359.24,-80.54"/>
<polygon fill="black" stroke="black" points="362.01,-82.69 366.15,-72.94 356.83,-77.98 362.01,-82.69"/>
</g>
</g>
</svg>
